<svg id="Filled" height="512" viewBox="0 0 512 512" width="512" xmlns="http://www.w3.org/2000/svg"><path d="m488 488h-80l-1.13-11.88-30.87-324.12h80l30.76 322.96z" fill="#c7312e"/><path d="m376 152h-256l-32 336h320z" fill="#eb423f"/><path d="m112 312 32 56h56l-40 48 16 72-64-40-64 40 16-72-40-48h56z" fill="#f7b030"/><circle cx="312" cy="216" fill="#4f5659" r="16"/><circle cx="184" cy="216" fill="#4f5659" r="16"/><path d="m296 16a71.659 71.659 0 0 0 -24 4.128 71.975 71.975 0 0 0 -96 67.872v56h-56a8 8 0 0 0 -7.964 7.242l-16.522 173.483-20.157 35.275h-51.357a8 8 0 0 0 -6.146 13.122l37.484 44.978-15.148 68.165a8 8 0 0 0 12.05 8.519l28.791-17.994-1 10.452a8 8 0 0 0 7.969 8.758h400a8 8 0 0 0 7.964-8.758l-32-336a8 8 0 0 0 -7.964-7.242h-88v-56a72.081 72.081 0 0 0 -72-72zm-104 72a56.063 56.063 0 0 1 56-56c.915 0 1.823.026 2.727.069a71.885 71.885 0 0 0 -26.727 55.931v56h-32zm112 0v56h-64v-56a56.069 56.069 0 0 1 32-50.586 56.069 56.069 0 0 1 32 50.586zm-233.854 322.878-29.066-34.878h38.92a8 8 0 0 0 6.946-4.031l25.054-43.844 25.054 43.844a8 8 0 0 0 6.946 4.031h38.92l-29.066 34.878a8 8 0 0 0 -1.664 6.857l11.859 53.365-47.809-29.88a8 8 0 0 0 -8.48 0l-47.809 29.88 11.859-53.365a8 8 0 0 0 -1.664-6.857zm27.975 55.231 13.879-8.675 36.1 22.566h-51.3zm346.039-13.294 25.411 27.185h-45.644zm33.65 12.568-26.643-28.5-26.367-276.883h23.928zm-42.6-27.337-21.213 28.5-29.197-306.546h23.928zm-36.01 41.954h-216.783l-13.755-61.9 37.484-44.98a8 8 0 0 0 -6.146-13.12h-51.357l-29.7-51.969a7.987 7.987 0 0 0 -5.4-3.863l13.731-144.168h48.726v33.376a24 24 0 1 0 16 0v-33.376h112v33.376a24 24 0 1 0 16 0v-33.376h48.726zm-207.2-264a8 8 0 1 1 -8-8 8.009 8.009 0 0 1 8 8zm128 0a8 8 0 1 1 -8-8 8.009 8.009 0 0 1 8 8zm32-128v56h-32v-56a71.886 71.886 0 0 0 -26.727-55.931c.9-.043 1.812-.069 2.727-.069a56.063 56.063 0 0 1 56 56z"/></svg>